<?xml version="1.0" encoding="utf-8"?>
<!-- Generator: Adobe Illustrator 27.5.0, SVG Export Plug-In . SVG Version: 6.00 Build 0)  -->
<svg version="1.1"
	 id="Layer_1" text-rendering="geometricPrecision" image-rendering="optimizeQuality" shape-rendering="geometricPrecision"
	 xmlns="http://www.w3.org/2000/svg" xmlns:xlink="http://www.w3.org/1999/xlink" x="0px" y="0px" viewBox="0 0 8192 8189.3"
	 style="enable-background:new 0 0 8192 8189.3;" xml:space="preserve">
<style type="text/css">
	.st0{fill-rule:evenodd;clip-rule:evenodd;}
	.cherry-icon {
        width: 200px; 
        height: 200px;
        position: relative;
        animation: logoAnimation 2s infinite;
      }
      
     
      
      
	  .st0:hover {
		fill:orange;
		
	  }


.cherry-icon :hover {
  filter: invert(100%);
}

      
	
</style>
<path class="cherry-icon" d="M6428.8,3623.7c-195.7,0-383.9,31.9-559.8,90.8c-410.3-337.7-660.7-896.3-739.4-1490.9
	c-85.3-644.6,31.3-1322.1,364-1803.3l-0.2-0.1l9.9-14.1c81.7-116.9,53.1-277.9-63.8-359.5c-116.9-81.6-277.9-53.1-359.5,63.8
	l-10.7,15.3l-0.8,1.2l-0.2-0.1c-142.5,206.1-252.9,439.6-331.8,688.8c-198.9-468.4-509.6-676.4-887-728.9
	c-389.6-54.3-743.2,58.4-1114.5,159c-253.5,68.7-504.5,141.7-754,216.8c146.6,239.4,337.7,442.5,575.6,607.7
	c116.4,80.9,240.7,151.6,370.2,209.7c542,243.1,1292.8,272.1,1731.3-165.1c-12.5,59.8-23.4,120.3-32.7,181.1
	c-699.4,406.8-1316.9,879.1-1796.1,1461.5c-441.5,536.6-763,1162.8-920.2,1911.6c-48.1-3.9-96.8-6-146-6
	C789.4,4663,0,5452.3,0,6426.1s789.4,1763.2,1763.2,1763.2c973.7,0,1763.2-789.4,1763.2-1763.2c0-744.3-461.2-1380.9-1113.5-1639.6
	c138.5-667.6,423.5-1224.6,815.5-1701.1c367.9-447.1,832.1-826.7,1359.5-1161.9c3.5,122.8,13.4,245.5,29.5,366.9
	c84.7,639.7,342.5,1251.4,764.1,1678.1c-434.1,321.2-715.6,836.8-715.6,1418.3c0,973.8,789.4,1763.2,1763.2,1763.2
	S8192,6360.6,8192,5386.9C8192,4413.1,7402.6,3623.7,6428.8,3623.7L6428.8,3623.7z M724.8,7289.2c-33.5-45-24.3-108.6,20.7-142.2
	c45-33.5,108.6-24.3,142.2,20.7c83.4,111.6,176.2,206,278,283.7c101.7,77.6,212.8,139,333.1,184.6c52.4,19.7,78.9,78.2,59.2,130.7
	s-78.2,78.9-130.7,59.2c-139-52.7-267.3-123.6-384.8-213.2C925.2,7523.2,819.2,7415.5,724.8,7289.2z M7467.3,6250
	c33.5-45,24.3-108.6-20.7-142.2c-45-33.5-108.6-24.3-142.2,20.7c-83.4,111.6-176.2,206-278,283.7c-101.7,77.6-212.8,139-333.1,184.6
	c-52.4,19.7-78.9,78.2-59.2,130.7c19.7,52.4,78.2,78.9,130.7,59.2c139-52.7,267.3-123.6,384.8-213.2
	C7266.8,6483.9,7372.8,6376.3,7467.3,6250z"/>
</svg>
