<?xml version="1.0" encoding="utf-8"?>
<!-- Generator: Adobe Illustrator 27.5.0, SVG Export Plug-In . SVG Version: 6.00 Build 0)  -->
<svg version="1.1" id="Capa_1" xmlns="http://www.w3.org/2000/svg" xmlns:xlink="http://www.w3.org/1999/xlink" x="0px" y="0px"
	 viewBox="0 0 54.7 54.7" style="enable-background:new 0 0 54.7 54.7;" xml:space="preserve">
<style type="text/css">
	.st0{fill:#E58D51;}
	.st1{fill:#FBD490;}
	.st2{fill:#CE6B29;}
	.st3{fill:#A46F3E;}
	.st4{fill:#659C35;}
	.st5{fill:#88C057;}
</style>
<g>
	<path class="st0" d="M40.8,11.9c-1.8,0.7-3.7,0.9-5.7,0.7L30,12l1.7-3.9c-1.4-0.3-2.9-0.4-4.4-0.4c-13,0-23.5,10.5-23.5,23.5
		s10.5,23.5,23.5,23.5s23.5-10.5,23.5-23.5C50.8,23.2,46.9,16.2,40.8,11.9z"/>
	<path class="st1" d="M10.1,38.1c-0.4,0-0.8-0.3-0.9-0.7c-1.4-3.9-1.5-8.2-0.3-12c0.2-0.5,0.7-0.8,1.2-0.7c0.5,0.2,0.8,0.7,0.7,1.2
		c-1,3.5-0.9,7.3,0.3,10.8c0.2,0.5-0.1,1.1-0.6,1.3C10.3,38.1,10.2,38.1,10.1,38.1z"/>
	<path class="st1" d="M11.4,22.9c-0.2,0-0.3,0-0.5-0.1c-0.5-0.3-0.6-0.9-0.4-1.4c0.7-1.3,1.7-2.5,2.7-3.6c0.4-0.4,1-0.4,1.4,0
		c0.4,0.4,0.4,1,0,1.4c-0.9,1-1.7,2.1-2.4,3.2C12.1,22.7,11.7,22.9,11.4,22.9z"/>
	<path class="st2" d="M40,51c2.4-1.5,4.5-3.5,6.2-5.7c0.8-2.2,1.3-4.6,1.3-6.9c0.2-7.2-3.1-15.5-10.9-17.6l0,0.1c0,0,0,0,0,0
		c-0.1,0-2.4-1-6.5-1.1c-3.5-0.1-6.5-0.5-8.2-5.3c-0.2-0.5-0.8-0.8-1.3-0.6c-0.5,0.2-0.8,0.8-0.6,1.3c2.1,6,6.3,6.6,10.1,6.7
		c3.6,0.1,5.7,0.9,5.7,0.9c0.1,0.1,0.3,0.1,0.4,0.1c0,0,0,0,0,0c6.7,1.9,9.5,9.2,9.3,15.6C45.3,43,43.5,48,40,51z"/>
	<polygon class="st3" points="31.2,17 29.6,17 28.8,11 32,11 	"/>
	<path class="st4" d="M49.8,0.7l-5.1-0.6c-5.4-0.6-10.5,2.3-12.7,7.2L30,12l5.1,0.6c5.4,0.6,10.5-2.3,12.7-7.2L49.8,0.7z"/>
	<path class="st5" d="M30,12l2.3,0.3l10.1-6.4c0.5-0.3,0.6-0.9,0.3-1.4c-0.3-0.5-0.9-0.6-1.4-0.3l-10.9,6.9L30,12z"/>
</g>
</svg>
