<?xml version="1.0" encoding="utf-8"?>
<!-- Generator: Adobe Illustrator 27.5.0, SVG Export Plug-In . SVG Version: 6.00 Build 0)  -->
<svg version="1.1" id="Layer_1" xmlns="http://www.w3.org/2000/svg" xmlns:xlink="http://www.w3.org/1999/xlink" x="0px" y="0px"
	 viewBox="0 0 92 122.9" style="enable-background:new 0 0 92 122.9;" xml:space="preserve">
<g>
	<path d="M9.7,34.4c4.1-2.8,8.2-3.9,12.2-4.2c-3.6-3-6.3-7.4-7.8-13.6c0,0,0-0.1,0-0.1c-0.2-0.9,0.3-1.7,1.2-1.9
		c3.2-0.7,6.5-0.7,9.9-0.1c1.9,0.4,3.8,0.9,5.7,1.7c-0.8-1.7-1.3-3.5-1.5-5.2c-0.3-3.2,0.3-6.3,2.2-9.5l0,0C31.9,1,32.4,0.7,33,0.7
		c3.1,0,5.9,1.5,8.4,3.9c1.9,1.9,3.6,4.4,5.1,7.1c1.1-2.7,2.5-5.1,4.3-7c2.4-2.6,5.4-4.3,9-4.7c0.7-0.1,1.4,0.2,1.7,0.9
		c1.3,2.7,1.8,5.8,1.5,9l0,0c-0.2,2.1-0.6,4.3-1.3,6.4c1.3-0.6,2.8-1.1,4.4-1.4c3-0.6,6.5-0.7,10.3,0l0.1,0c0.9,0.1,1.5,0.9,1.3,1.8
		c-0.9,6-3.4,10.4-7,13.5c3.3,0.4,6.7,1.4,10.6,3.7c1.5,0.9,2.8,1.8,4.1,3c1.2,1.1,2.3,2.4,3.1,3.7c3.7,5.7,3.9,13.7,2.4,21.8
		c-2,10.8-7.1,21.9-11.3,28.3c-3.4,5.2-7.7,10.4-13,15.7c-5.2,5.3-11.5,10.6-18.9,16c-0.8,0.6-1.7,0.5-2.5,0l0,0
		c-7.7-5.3-14.5-10.9-20.4-16.8c-5.9-5.9-10.9-12-14.8-18.5C5.5,79.3,0.3,66.9,0,55.7C-0.2,47.2,2.3,39.4,9.7,34.4L9.7,34.4z
		 M15.1,56.3c2-2.5,2.7-4.1,2.7-5.5s-1-2.8-2.7-2.8c-1.7,0-2.5,1.4-2.5,2.8C12.6,52.2,13.1,53.3,15.1,56.3L15.1,56.3z M54.3,105.9
		c2-2.5,2.7-4.1,2.7-5.5s-1-2.8-2.7-2.8c-1.7,0-2.5,1.4-2.5,2.8C51.7,101.8,52.3,102.9,54.3,105.9L54.3,105.9z M39,105
		c2-2.5,2.7-4.1,2.7-5.5s-1-2.8-2.7-2.8c-1.7,0-2.5,1.4-2.5,2.8C36.5,100.9,37.1,102,39,105L39,105z M31.2,90.5
		c2-2.5,2.7-4.1,2.7-5.5s-1-2.8-2.7-2.8c-1.7,0-2.5,1.4-2.5,2.8C28.7,86.3,29.3,87.5,31.2,90.5L31.2,90.5z M62.2,90.5
		c2-2.5,2.7-4.1,2.7-5.5s-1-2.8-2.7-2.8c-1.7,0-2.5,1.4-2.5,2.8C59.6,86.3,60.2,87.5,62.2,90.5L62.2,90.5z M46.5,89
		c2-2.5,2.7-4.1,2.7-5.5s-1-2.8-2.7-2.8c-1.7,0-2.5,1.4-2.5,2.8C44,84.9,44.5,86,46.5,89L46.5,89z M70.7,75.2c2-2.5,2.7-4.1,2.7-5.5
		s-1-2.8-2.7-2.8c-1.7,0-2.5,1.4-2.5,2.8C68.2,71,68.7,72.1,70.7,75.2L70.7,75.2z M56,74c2-2.5,2.7-4.1,2.7-5.5s-1-2.8-2.7-2.8
		s-2.5,1.4-2.5,2.8C53.5,69.9,54.1,71,56,74L56,74z M38.5,74c2-2.5,2.7-4.1,2.7-5.5s-1-2.8-2.7-2.8c-1.7,0-2.5,1.4-2.5,2.8
		C36,69.9,36.6,71,38.5,74L38.5,74z M23.3,74c2-2.5,2.7-4.1,2.7-5.5s-1-2.8-2.7-2.8c-1.7,0-2.5,1.4-2.5,2.8
		C20.8,69.9,21.4,71,23.3,74L23.3,74z M77.4,56.3c2-2.5,2.7-4.1,2.7-5.5s-1-2.8-2.7-2.8c-1.7,0-2.5,1.4-2.5,2.8
		C74.9,52.2,75.5,53.3,77.4,56.3L77.4,56.3z M62.1,56.3c2-2.5,2.7-4.1,2.7-5.5s-1-2.8-2.7-2.8c-1.7,0-2.5,1.4-2.5,2.8
		C59.6,52.2,60.1,53.3,62.1,56.3L62.1,56.3z M47.3,56.3c2-2.5,2.7-4.1,2.7-5.5S49,48,47.3,48s-2.5,1.4-2.5,2.8
		C44.8,52.2,45.3,53.3,47.3,56.3L47.3,56.3z M30.1,56.3c2-2.5,2.7-4.1,2.7-5.5s-1-2.8-2.7-2.8c-1.7,0-2.5,1.4-2.5,2.8
		C27.5,52.2,28.1,53.3,30.1,56.3L30.1,56.3z M28.1,30.4c2.2,0.2,4.4,0.6,6.6,0.9c3.9,0.6,8,1.3,12.3,1.2c4.1,0,7.8-0.1,11.2-0.7
		c2.5-0.4,4.8-1.4,7.2-1.6c0.3-0.2,0.7-0.4,1-0.6c3.8-2.5,6.7-6.2,7.9-11.7c-2.8-0.3-5.4-0.2-7.7,0.2c-2.8,0.6-5.1,1.7-7.1,3.3
		c-0.7,0.5-1.7,0.4-2.2-0.2c-0.4-0.5-0.5-1.1-0.2-1.6l0,0c1.4-3.3,2.4-6.6,2.6-9.8v0l0,0c0.2-2.2,0-4.4-0.8-6.3
		c-2.3,0.5-4.3,1.7-6,3.5c-2.2,2.3-3.8,5.6-4.8,9.4c-0.2,0.9-1.1,1.4-2,1.1c-0.5-0.1-0.9-0.5-1-0.9l0,0c-1.7-3.8-3.8-7.3-6.2-9.6
		c-1.6-1.6-3.4-2.7-5.2-2.9c-1.2,2.2-1.5,4.5-1.3,6.7c0.3,2.8,1.5,5.5,3.5,8.1c0.5,0.7,0.4,1.7-0.3,2.2c-0.5,0.4-1.2,0.4-1.7,0.1
		c-3.3-1.7-6.4-2.9-9.5-3.5c-2.4-0.5-4.7-0.6-6.9-0.3C19.5,24,23.1,28,27.9,30.3C28,30.3,28,30.3,28.1,30.4L28.1,30.4z M63.2,34.7
		c-5,1.8-10.7,2.4-16.3,2.2c-5.1-0.2-10.1-0.6-14.5-1.7c-7.1-1.1-13.7-1.7-20.2,2.7c-6,4.1-8,10.6-7.8,17.7C4.5,66,9.4,77.6,14,85
		c3.7,6.2,8.5,12,14.2,17.7c5.4,5.3,11.6,10.5,18.5,15.4c6.7-5,12.3-9.9,17.1-14.7c5.1-5.1,9.2-10.1,12.4-15.1
		c4-6,8.8-16.6,10.7-26.7c1.3-7.2,1.2-14-1.8-18.7c-0.7-1.1-1.5-2-2.4-2.9c-1-0.9-2.1-1.7-3.3-2.4C73.3,34.1,68.3,34,63.2,34.7
		L63.2,34.7z"/>
</g>
</svg>
